<?xml version="1.0" standalone="no"?>
<!DOCTYPE svg PUBLIC "-//W3C//DTD SVG 20010904//EN"
 "http://www.w3.org/TR/2001/REC-SVG-20010904/DTD/svg10.dtd">
<svg version="1.0" xmlns="http://www.w3.org/2000/svg"
 width="192.000000pt" height="192.000000pt" viewBox="0 0 192.000000 192.000000"
 preserveAspectRatio="xMidYMid meet">
<metadata>
Created by potrace 1.11, written by Peter Selinger 2001-2013
</metadata>
<g transform="translate(0.000000,192.000000) scale(0.100000,-0.100000)"
fill="#000000" stroke="none">
<path d="M814 1829 c-268 -45 -518 -228 -639 -469 -60 -120 -86 -221 -92 -360
-7 -149 10 -250 62 -377 86 -213 275 -401 482 -481 501 -193 1037 71 1185 583
20 68 23 102 23 235 0 142 -3 162 -29 245 -53 169 -129 291 -255 407 -190 176
-478 260 -737 217z m113 -361 c6 -7 32 -98 58 -203 26 -104 52 -196 58 -203 7
-9 31 -12 76 -10 l66 3 5 131 c4 114 8 135 25 154 19 22 73 50 95 50 16 0 12
-29 -10 -58 -19 -25 -20 -40 -18 -152 l3 -125 133 -3 c107 -2 134 -6 139 -18
8 -23 -66 -216 -94 -242 l-24 -22 25 -31 c103 -122 9 -298 -152 -286 -136 10
-205 160 -128 277 l27 41 -68 -3 c-67 -3 -68 -3 -65 -29 5 -45 -50 -79 -75
-46 -6 6 -13 36 -17 66 -21 164 -163 291 -324 291 -74 0 -113 -12 -184 -55
-46 -29 -61 -34 -77 -26 -45 25 -35 63 28 101 l40 25 1 181 c0 126 4 184 12
192 17 17 432 17 445 0z m-184 -477 c6 -6 20 -11 31 -11 23 -1 56 -22 56 -36
0 -5 14 -17 30 -26 17 -10 30 -25 30 -36 0 -10 9 -27 19 -36 23 -21 40 -157
23 -179 -5 -6 -10 -25 -10 -41 0 -17 -8 -36 -19 -45 -10 -9 -24 -28 -31 -43
-6 -16 -18 -28 -25 -28 -8 0 -26 -11 -41 -25 -16 -15 -39 -25 -57 -25 -16 0
-29 -5 -29 -10 0 -14 -128 -7 -155 7 -11 6 -35 17 -52 23 -18 7 -33 19 -33 26
0 8 -11 19 -24 24 -27 10 -35 20 -41 50 -2 11 -11 28 -20 37 -10 10 -15 26
-12 40 2 14 0 38 -6 53 -8 21 -8 35 0 52 6 13 11 34 11 47 1 13 10 33 20 45
11 11 23 32 27 44 4 14 19 28 36 34 16 5 29 16 29 23 0 14 29 27 63 30 10 1
23 7 29 13 13 13 137 7 151 -7z"/>
<path d="M567 1393 c-4 -3 -7 -60 -7 -125 l0 -118 180 0 c137 0 180 3 180 13
0 10 -40 168 -56 220 -5 15 -21 17 -148 17 -78 0 -146 -3 -149 -7z"/>
<path d="M1283 726 c-37 -17 -63 -61 -63 -107 0 -48 56 -99 108 -99 48 0 86
28 102 74 14 43 5 77 -29 110 -34 32 -77 40 -118 22z"/>
<path d="M635 905 c-5 -2 -22 -6 -37 -9 -35 -8 -85 -50 -105 -89 -25 -49 -21
-127 10 -179 75 -128 274 -113 326 25 28 72 1 174 -56 215 -39 28 -109 47
-138 37z m84 -131 c64 -81 -42 -182 -114 -109 -53 52 -18 135 56 135 29 0 42
-6 58 -26z"/>
</g>
</svg>
